{
    "asset" : {
        "generator" : "Khronos glTF Blender I/O v1.8.19",
        "version" : "2.0"
    },
    "scene" : 0,
    "scenes" : [
        {
            "name" : "Scene",
            "nodes" : [
                3
            ]
        }
    ],
    "nodes" : [
        {
            "mesh" : 0,
            "name" : "Sphere",
            "scale" : [
                0.5144876837730408,
                0.5144876837730408,
                0.5144876837730408
            ],
            "translation" : [
                0,
                2.3506975173950195,
                0
            ]
        },
        {
            "mesh" : 1,
            "name" : "Sphere.001",
            "scale" : [
                0.294336199760437,
                0.294336199760437,
                0.294336199760437
            ],
            "translation" : [
                1.6890865564346313,
                2.415976047515869,
                0
            ]
        },
        {
            "mesh" : 2,
            "name" : "Sphere.002",
            "scale" : [
                0.294336199760437,
                0.294336199760437,
                0.294336199760437
            ],
            "translation" : [
                -1.950201153755188,
                2.3588573932647705,
                0
            ]
        },
        {
            "children" : [
                0,
                1,
                2
            ],
            "mesh" : 3,
            "name" : "Cube",
            "scale" : [
                1.154128074645996,
                1.154128074645996,
                1.154128074645996
            ],
            "translation" : [
                0.03491752967238426,
                1.1933327913284302,
                0
            ]
        }
    ],
    "materials" : [
        {
            "doubleSided" : true,
            "name" : "blue",
            "pbrMetallicRoughness" : {
                "baseColorFactor" : [
                    0.039175547659397125,
                    0.26342734694480896,
                    0.8000000715255737,
                    1
                ],
                "metallicFactor" : 0,
                "roughnessFactor" : 0.4000000059604645
            }
        },
        {
            "doubleSided" : true,
            "name" : "red",
            "pbrMetallicRoughness" : {
                "baseColorFactor" : [
                    0.8000000715255737,
                    0.009868036955595016,
                    0.10419704765081406,
                    1
                ],
                "metallicFactor" : 0,
                "roughnessFactor" : 0.5
            }
        }
    ],
    "meshes" : [
        {
            "name" : "Sphere",
            "primitives" : [
                {
                    "attributes" : {
                        "POSITION" : 0,
                        "NORMAL" : 1,
                        "TEXCOORD_0" : 2
                    },
                    "indices" : 3,
                    "material" : 0
                },
                {
                    "attributes" : {
                        "POSITION" : 4,
                        "NORMAL" : 5,
                        "TEXCOORD_0" : 6
                    },
                    "indices" : 7,
                    "material" : 1
                }
            ]
        },
        {
            "name" : "Sphere.001",
            "primitives" : [
                {
                    "attributes" : {
                        "POSITION" : 8,
                        "NORMAL" : 9,
                        "TEXCOORD_0" : 10
                    },
                    "indices" : 11,
                    "material" : 1
                },
                {
                    "attributes" : {
                        "POSITION" : 12,
                        "NORMAL" : 13,
                        "TEXCOORD_0" : 14
                    },
                    "indices" : 15,
                    "material" : 0
                }
            ]
        },
        {
            "name" : "Sphere.002",
            "primitives" : [
                {
                    "attributes" : {
                        "POSITION" : 16,
                        "NORMAL" : 17,
                        "TEXCOORD_0" : 18
                    },
                    "indices" : 19,
                    "material" : 1
                },
                {
                    "attributes" : {
                        "POSITION" : 20,
                        "NORMAL" : 21,
                        "TEXCOORD_0" : 22
                    },
                    "indices" : 23,
                    "material" : 0
                }
            ]
        },
        {
            "name" : "Cube.001",
            "primitives" : [
                {
                    "attributes" : {
                        "POSITION" : 24,
                        "NORMAL" : 25,
                        "TEXCOORD_0" : 26
                    },
                    "indices" : 27,
                    "material" : 1
                },
                {
                    "attributes" : {
                        "POSITION" : 28,
                        "NORMAL" : 29,
                        "TEXCOORD_0" : 30
                    },
                    "indices" : 31,
                    "material" : 0
                }
            ]
        }
    ],
    "accessors" : [
        {
            "bufferView" : 0,
            "componentType" : 5126,
            "count" : 2646,
            "max" : [
                1.000000238418579,
                1,
                1.0000003576278687
            ],
            "min" : [
                -0.9999998211860657,
                -1,
                -1
            ],
            "type" : "VEC3"
        },
        {
            "bufferView" : 1,
            "componentType" : 5126,
            "count" : 2646,
            "type" : "VEC3"
        },
        {
            "bufferView" : 2,
            "componentType" : 5126,
            "count" : 2646,
            "type" : "VEC2"
        },
        {
            "bufferView" : 3,
            "componentType" : 5123,
            "count" : 2688,
            "type" : "SCALAR"
        },
        {
            "bufferView" : 4,
            "componentType" : 5126,
            "count" : 192,
            "max" : [
                1.000000238418579,
                0.19509035348892212,
                1.0000003576278687
            ],
            "min" : [
                -0.9999998211860657,
                7.549790126404332e-08,
                -1
            ],
            "type" : "VEC3"
        },
        {
            "bufferView" : 5,
            "componentType" : 5126,
            "count" : 192,
            "type" : "VEC3"
        },
        {
            "bufferView" : 6,
            "componentType" : 5126,
            "count" : 192,
            "type" : "VEC2"
        },
        {
            "bufferView" : 7,
            "componentType" : 5123,
            "count" : 192,
            "type" : "SCALAR"
        },
        {
            "bufferView" : 8,
            "componentType" : 5126,
            "count" : 2470,
            "max" : [
                1.000000238418579,
                1,
                1.0000003576278687
            ],
            "min" : [
                -0.9999998211860657,
                -1,
                -1
            ],
            "type" : "VEC3"
        },
        {
            "bufferView" : 9,
            "componentType" : 5126,
            "count" : 2470,
            "type" : "VEC3"
        },
        {
            "bufferView" : 10,
            "componentType" : 5126,
            "count" : 2470,
            "type" : "VEC2"
        },
        {
            "bufferView" : 11,
            "componentType" : 5123,
            "count" : 2496,
            "type" : "SCALAR"
        },
        {
            "bufferView" : 12,
            "componentType" : 5126,
            "count" : 368,
            "max" : [
                0.8314697742462158,
                0.7071067690849304,
                0.831469714641571
            ],
            "min" : [
                -0.8314692378044128,
                -0.7071067690849304,
                -0.8314696550369263
            ],
            "type" : "VEC3"
        },
        {
            "bufferView" : 13,
            "componentType" : 5126,
            "count" : 368,
            "type" : "VEC3"
        },
        {
            "bufferView" : 14,
            "componentType" : 5126,
            "count" : 368,
            "type" : "VEC2"
        },
        {
            "bufferView" : 15,
            "componentType" : 5123,
            "count" : 384,
            "type" : "SCALAR"
        },
        {
            "bufferView" : 16,
            "componentType" : 5126,
            "count" : 1728,
            "max" : [
                0.9807852506637573,
                1,
                0.9807853698730469
            ],
            "min" : [
                -0.9807848334312439,
                -1,
                -0.9807853102684021
            ],
            "type" : "VEC3"
        },
        {
            "bufferView" : 17,
            "componentType" : 5126,
            "count" : 1728,
            "type" : "VEC3"
        },
        {
            "bufferView" : 18,
            "componentType" : 5126,
            "count" : 1728,
            "type" : "VEC2"
        },
        {
            "bufferView" : 19,
            "componentType" : 5123,
            "count" : 2496,
            "type" : "SCALAR"
        },
        {
            "bufferView" : 20,
            "componentType" : 5126,
            "count" : 256,
            "max" : [
                1.000000238418579,
                0.19509035348892212,
                1.0000003576278687
            ],
            "min" : [
                -0.9999998211860657,
                -0.19509020447731018,
                -1
            ],
            "type" : "VEC3"
        },
        {
            "bufferView" : 21,
            "componentType" : 5126,
            "count" : 256,
            "type" : "VEC3"
        },
        {
            "bufferView" : 22,
            "componentType" : 5126,
            "count" : 256,
            "type" : "VEC2"
        },
        {
            "bufferView" : 23,
            "componentType" : 5123,
            "count" : 384,
            "type" : "SCALAR"
        },
        {
            "bufferView" : 24,
            "componentType" : 5126,
            "count" : 34,
            "max" : [
                1,
                1,
                1
            ],
            "min" : [
                -1,
                -1,
                -1
            ],
            "type" : "VEC3"
        },
        {
            "bufferView" : 25,
            "componentType" : 5126,
            "count" : 34,
            "type" : "VEC3"
        },
        {
            "bufferView" : 26,
            "componentType" : 5126,
            "count" : 34,
            "type" : "VEC2"
        },
        {
            "bufferView" : 27,
            "componentType" : 5123,
            "count" : 42,
            "type" : "SCALAR"
        },
        {
            "bufferView" : 28,
            "componentType" : 5126,
            "count" : 34,
            "max" : [
                1,
                1,
                1
            ],
            "min" : [
                -1,
                -1,
                -1
            ],
            "type" : "VEC3"
        },
        {
            "bufferView" : 29,
            "componentType" : 5126,
            "count" : 34,
            "type" : "VEC3"
        },
        {
            "bufferView" : 30,
            "componentType" : 5126,
            "count" : 34,
            "type" : "VEC2"
        },
        {
            "bufferView" : 31,
            "componentType" : 5123,
            "count" : 42,
            "type" : "SCALAR"
        }
    ],
    "bufferViews" : [
        {
            "buffer" : 0,
            "byteLength" : 31752,
            "byteOffset" : 0
        },
        {
            "buffer" : 0,
            "byteLength" : 31752,
            "byteOffset" : 31752
        },
        {
            "buffer" : 0,
            "byteLength" : 21168,
            "byteOffset" : 63504
        },
        {
            "buffer" : 0,
            "byteLength" : 5376,
            "byteOffset" : 84672
        },
        {
            "buffer" : 0,
            "byteLength" : 2304,
            "byteOffset" : 90048
        },
        {
            "buffer" : 0,
            "byteLength" : 2304,
            "byteOffset" : 92352
        },
        {
            "buffer" : 0,
            "byteLength" : 1536,
            "byteOffset" : 94656
        },
        {
            "buffer" : 0,
            "byteLength" : 384,
            "byteOffset" : 96192
        },
        {
            "buffer" : 0,
            "byteLength" : 29640,
            "byteOffset" : 96576
        },
        {
            "buffer" : 0,
            "byteLength" : 29640,
            "byteOffset" : 126216
        },
        {
            "buffer" : 0,
            "byteLength" : 19760,
            "byteOffset" : 155856
        },
        {
            "buffer" : 0,
            "byteLength" : 4992,
            "byteOffset" : 175616
        },
        {
            "buffer" : 0,
            "byteLength" : 4416,
            "byteOffset" : 180608
        },
        {
            "buffer" : 0,
            "byteLength" : 4416,
            "byteOffset" : 185024
        },
        {
            "buffer" : 0,
            "byteLength" : 2944,
            "byteOffset" : 189440
        },
        {
            "buffer" : 0,
            "byteLength" : 768,
            "byteOffset" : 192384
        },
        {
            "buffer" : 0,
            "byteLength" : 20736,
            "byteOffset" : 193152
        },
        {
            "buffer" : 0,
            "byteLength" : 20736,
            "byteOffset" : 213888
        },
        {
            "buffer" : 0,
            "byteLength" : 13824,
            "byteOffset" : 234624
        },
        {
            "buffer" : 0,
            "byteLength" : 4992,
            "byteOffset" : 248448
        },
        {
            "buffer" : 0,
            "byteLength" : 3072,
            "byteOffset" : 253440
        },
        {
            "buffer" : 0,
            "byteLength" : 3072,
            "byteOffset" : 256512
        },
        {
            "buffer" : 0,
            "byteLength" : 2048,
            "byteOffset" : 259584
        },
        {
            "buffer" : 0,
            "byteLength" : 768,
            "byteOffset" : 261632
        },
        {
            "buffer" : 0,
            "byteLength" : 408,
            "byteOffset" : 262400
        },
        {
            "buffer" : 0,
            "byteLength" : 408,
            "byteOffset" : 262808
        },
        {
            "buffer" : 0,
            "byteLength" : 272,
            "byteOffset" : 263216
        },
        {
            "buffer" : 0,
            "byteLength" : 84,
            "byteOffset" : 263488
        },
        {
            "buffer" : 0,
            "byteLength" : 408,
            "byteOffset" : 263572
        },
        {
            "buffer" : 0,
            "byteLength" : 408,
            "byteOffset" : 263980
        },
        {
            "buffer" : 0,
            "byteLength" : 272,
            "byteOffset" : 264388
        },
        {
            "buffer" : 0,
            "byteLength" : 84,
            "byteOffset" : 264660
        }
    ],
    "buffers" : [
        {
            "byteLength" : 264744,
            "uri" : "data:application/octet-stream;base64,"
        }
    ]
}
