{
    "asset" : {
        "generator" : "Khronos glTF Blender I/O v1.8.19",
        "version" : "2.0"
    },
    "scene" : 0,
    "scenes" : [
        {
            "name" : "Scene",
            "nodes" : [
                0,
                1
            ]
        }
    ],
    "nodes" : [
        {
            "mesh" : 0,
            "name" : "body",
            "translation" : [
                1.399999976158142,
                0.9182369709014893,
                0
            ]
        },
        {
            "mesh" : 1,
            "name" : "wing",
            "translation" : [
                -0.08045066148042679,
                1.496287226676941,
                -1.4205938577651978
            ]
        }
    ],
    "materials" : [
        {
            "doubleSided" : true,
            "name" : "metal",
            "pbrMetallicRoughness" : {
                "baseColorFactor" : [
                    0.4062289893627167,
                    0.4062289893627167,
                    0.4062289893627167,
                    1
                ],
                "metallicFactor" : 0.8565739989280701,
                "roughnessFactor" : 0.5
            }
        },
        {
            "doubleSided" : true,
            "name" : "black",
            "pbrMetallicRoughness" : {
                "baseColorFactor" : [
                    0.3373848497867584,
                    0.2501187324523926,
                    0.2989867031574249,
                    1
                ],
                "metallicFactor" : 0,
                "roughnessFactor" : 0.5
            }
        },
        {
            "doubleSided" : true,
            "name" : "blue",
            "pbrMetallicRoughness" : {
                "baseColorFactor" : [
                    0.8000000715255737,
                    2.7930171199841425e-05,
                    0.33479470014572144,
                    1
                ],
                "metallicFactor" : 0,
                "roughnessFactor" : 0.5
            }
        },
        {
            "doubleSided" : true,
            "name" : "green",
            "pbrMetallicRoughness" : {
                "baseColorFactor" : [
                    0.42337778210639954,
                    0.5065860748291016,
                    0,
                    1
                ],
                "metallicFactor" : 0,
                "roughnessFactor" : 0.5
            }
        }
    ],
    "meshes" : [
        {
            "name" : "body",
            "primitives" : [
                {
                    "attributes" : {
                        "POSITION" : 0,
                        "NORMAL" : 1,
                        "TEXCOORD_0" : 2
                    },
                    "indices" : 3,
                    "material" : 0
                },
                {
                    "attributes" : {
                        "POSITION" : 4,
                        "NORMAL" : 5,
                        "TEXCOORD_0" : 6
                    },
                    "indices" : 7,
                    "material" : 1
                }
            ]
        },
        {
            "name" : "wing",
            "primitives" : [
                {
                    "attributes" : {
                        "POSITION" : 8,
                        "NORMAL" : 9,
                        "TEXCOORD_0" : 10
                    },
                    "indices" : 11,
                    "material" : 2
                },
                {
                    "attributes" : {
                        "POSITION" : 12,
                        "NORMAL" : 13,
                        "TEXCOORD_0" : 14
                    },
                    "indices" : 15,
                    "material" : 3
                },
                {
                    "attributes" : {
                        "POSITION" : 16,
                        "NORMAL" : 17,
                        "TEXCOORD_0" : 18
                    },
                    "indices" : 19,
                    "material" : 0
                }
            ]
        }
    ],
    "accessors" : [
        {
            "bufferView" : 0,
            "componentType" : 5126,
            "count" : 352,
            "max" : [
                -1.0284080505371094,
                0.4890390634536743,
                0.37159204483032227
            ],
            "min" : [
                -1.7715919017791748,
                0.1554778814315796,
                -0.3715919554233551
            ],
            "type" : "VEC3"
        },
        {
            "bufferView" : 1,
            "componentType" : 5126,
            "count" : 352,
            "type" : "VEC3"
        },
        {
            "bufferView" : 2,
            "componentType" : 5126,
            "count" : 352,
            "type" : "VEC2"
        },
        {
            "bufferView" : 3,
            "componentType" : 5123,
            "count" : 1050,
            "type" : "SCALAR"
        },
        {
            "bufferView" : 4,
            "componentType" : 5126,
            "count" : 515,
            "max" : [
                0.4119679927825928,
                0.1554781198501587,
                0.6000000238418579
            ],
            "min" : [
                -2,
                -0.9099360704421997,
                -0.6000002026557922
            ],
            "type" : "VEC3"
        },
        {
            "bufferView" : 5,
            "componentType" : 5126,
            "count" : 515,
            "type" : "VEC3"
        },
        {
            "bufferView" : 6,
            "componentType" : 5126,
            "count" : 515,
            "type" : "VEC2"
        },
        {
            "bufferView" : 7,
            "componentType" : 5123,
            "count" : 1428,
            "type" : "SCALAR"
        },
        {
            "bufferView" : 8,
            "componentType" : 5126,
            "count" : 228,
            "max" : [
                1.496078610420227,
                0.11363272368907928,
                2.3399839401245117
            ],
            "min" : [
                -1.2542003393173218,
                -0.025000296533107758,
                -0.145516037940979
            ],
            "type" : "VEC3"
        },
        {
            "bufferView" : 9,
            "componentType" : 5126,
            "count" : 228,
            "type" : "VEC3"
        },
        {
            "bufferView" : 10,
            "componentType" : 5126,
            "count" : 228,
            "type" : "VEC2"
        },
        {
            "bufferView" : 11,
            "componentType" : 5123,
            "count" : 618,
            "type" : "SCALAR"
        },
        {
            "bufferView" : 12,
            "componentType" : 5126,
            "count" : 2040,
            "max" : [
                1.496078610420227,
                0.11363272368907928,
                2.3399839401245117
            ],
            "min" : [
                -1.2542003393173218,
                -0.039651237428188324,
                -0.145516037940979
            ],
            "type" : "VEC3"
        },
        {
            "bufferView" : 13,
            "componentType" : 5126,
            "count" : 2040,
            "type" : "VEC3"
        },
        {
            "bufferView" : 14,
            "componentType" : 5126,
            "count" : 2040,
            "type" : "VEC2"
        },
        {
            "bufferView" : 15,
            "componentType" : 5123,
            "count" : 6126,
            "type" : "SCALAR"
        },
        {
            "bufferView" : 16,
            "componentType" : 5126,
            "count" : 192,
            "max" : [
                0.1423276662826538,
                0.1358737200498581,
                1.4824708700180054
            ],
            "min" : [
                0.018573660403490067,
                -0.09385331720113754,
                1.3587169647216797
            ],
            "type" : "VEC3"
        },
        {
            "bufferView" : 17,
            "componentType" : 5126,
            "count" : 192,
            "type" : "VEC3"
        },
        {
            "bufferView" : 18,
            "componentType" : 5126,
            "count" : 192,
            "type" : "VEC2"
        },
        {
            "bufferView" : 19,
            "componentType" : 5123,
            "count" : 564,
            "type" : "SCALAR"
        }
    ],
    "bufferViews" : [
        {
            "buffer" : 0,
            "byteLength" : 4224,
            "byteOffset" : 0
        },
        {
            "buffer" : 0,
            "byteLength" : 4224,
            "byteOffset" : 4224
        },
        {
            "buffer" : 0,
            "byteLength" : 2816,
            "byteOffset" : 8448
        },
        {
            "buffer" : 0,
            "byteLength" : 2100,
            "byteOffset" : 11264
        },
        {
            "buffer" : 0,
            "byteLength" : 6180,
            "byteOffset" : 13364
        },
        {
            "buffer" : 0,
            "byteLength" : 6180,
            "byteOffset" : 19544
        },
        {
            "buffer" : 0,
            "byteLength" : 4120,
            "byteOffset" : 25724
        },
        {
            "buffer" : 0,
            "byteLength" : 2856,
            "byteOffset" : 29844
        },
        {
            "buffer" : 0,
            "byteLength" : 2736,
            "byteOffset" : 32700
        },
        {
            "buffer" : 0,
            "byteLength" : 2736,
            "byteOffset" : 35436
        },
        {
            "buffer" : 0,
            "byteLength" : 1824,
            "byteOffset" : 38172
        },
        {
            "buffer" : 0,
            "byteLength" : 1236,
            "byteOffset" : 39996
        },
        {
            "buffer" : 0,
            "byteLength" : 24480,
            "byteOffset" : 41232
        },
        {
            "buffer" : 0,
            "byteLength" : 24480,
            "byteOffset" : 65712
        },
        {
            "buffer" : 0,
            "byteLength" : 16320,
            "byteOffset" : 90192
        },
        {
            "buffer" : 0,
            "byteLength" : 12252,
            "byteOffset" : 106512
        },
        {
            "buffer" : 0,
            "byteLength" : 2304,
            "byteOffset" : 118764
        },
        {
            "buffer" : 0,
            "byteLength" : 2304,
            "byteOffset" : 121068
        },
        {
            "buffer" : 0,
            "byteLength" : 1536,
            "byteOffset" : 123372
        },
        {
            "buffer" : 0,
            "byteLength" : 1128,
            "byteOffset" : 124908
        }
    ],
    "buffers" : [
        {
            "byteLength" : 126036,
            "uri" : "data:application/octet-stream;base64,"
        }
    ]
}
