{
    "asset" : {
        "generator" : "Khronos glTF Blender I/O v1.8.19",
        "version" : "2.0"
    },
    "scene" : 0,
    "scenes" : [
        {
            "name" : "Scene",
            "nodes" : [
                1
            ]
        }
    ],
    "nodes" : [
        {
            "mesh" : 0,
            "name" : "wing"
        },
        {
            "children" : [
                0
            ],
            "mesh" : 1,
            "name" : "body",
            "translation" : [
                0,
                1.399999976158142,
                0
            ]
        }
    ],
    "materials" : [
        {
            "doubleSided" : true,
            "name" : "green",
            "pbrMetallicRoughness" : {
                "baseColorFactor" : [
                    0.029771462082862854,
                    0.5065864324569702,
                    0.023245517164468765,
                    1
                ],
                "metallicFactor" : 0,
                "roughnessFactor" : 0.5
            }
        },
        {
            "doubleSided" : true,
            "name" : "blue",
            "pbrMetallicRoughness" : {
                "baseColorFactor" : [
                    0.007447982206940651,
                    0.1599704623222351,
                    0.8000000715255737,
                    1
                ],
                "metallicFactor" : 0,
                "roughnessFactor" : 0.5
            }
        },
        {
            "doubleSided" : true,
            "name" : "metal",
            "pbrMetallicRoughness" : {
                "baseColorFactor" : [
                    0.40622928738594055,
                    0.40622928738594055,
                    0.40622928738594055,
                    1
                ],
                "metallicFactor" : 0.8565737009048462,
                "roughnessFactor" : 0.5
            }
        },
        {
            "doubleSided" : true,
            "name" : "black",
            "pbrMetallicRoughness" : {
                "baseColorFactor" : [
                    0.03410154581069946,
                    0.03410154581069946,
                    0.03410154581069946,
                    1
                ],
                "metallicFactor" : 0,
                "roughnessFactor" : 0.5
            }
        }
    ],
    "meshes" : [
        {
            "name" : "wing",
            "primitives" : [
                {
                    "attributes" : {
                        "POSITION" : 0,
                        "NORMAL" : 1,
                        "TEXCOORD_0" : 2
                    },
                    "indices" : 3,
                    "material" : 0
                },
                {
                    "attributes" : {
                        "POSITION" : 4,
                        "NORMAL" : 5,
                        "TEXCOORD_0" : 6
                    },
                    "indices" : 7,
                    "material" : 1
                },
                {
                    "attributes" : {
                        "POSITION" : 8,
                        "NORMAL" : 9,
                        "TEXCOORD_0" : 10
                    },
                    "indices" : 11,
                    "material" : 2
                }
            ]
        },
        {
            "name" : "body",
            "primitives" : [
                {
                    "attributes" : {
                        "POSITION" : 12,
                        "NORMAL" : 13,
                        "TEXCOORD_0" : 14,
                        "COLOR_0" : 15
                    },
                    "indices" : 16,
                    "material" : 3
                },
                {
                    "attributes" : {
                        "POSITION" : 17,
                        "NORMAL" : 18,
                        "TEXCOORD_0" : 19,
                        "COLOR_0" : 20
                    },
                    "indices" : 21,
                    "material" : 2
                },
                {
                    "attributes" : {
                        "POSITION" : 22,
                        "NORMAL" : 23,
                        "TEXCOORD_0" : 24,
                        "COLOR_0" : 25
                    },
                    "indices" : 26,
                    "material" : 0
                },
                {
                    "attributes" : {
                        "POSITION" : 27,
                        "NORMAL" : 28,
                        "TEXCOORD_0" : 29,
                        "COLOR_0" : 30
                    },
                    "indices" : 31,
                    "material" : 1
                }
            ]
        }
    ],
    "accessors" : [
        {
            "bufferView" : 0,
            "componentType" : 5126,
            "count" : 2040,
            "max" : [
                1.5680134296417236,
                0.20748576521873474,
                1.377198576927185
            ],
            "min" : [
                -0.8501179814338684,
                0.0542018860578537,
                -1.3771984577178955
            ],
            "type" : "VEC3"
        },
        {
            "bufferView" : 1,
            "componentType" : 5126,
            "count" : 2040,
            "type" : "VEC3"
        },
        {
            "bufferView" : 2,
            "componentType" : 5126,
            "count" : 2040,
            "type" : "VEC2"
        },
        {
            "bufferView" : 3,
            "componentType" : 5123,
            "count" : 6126,
            "type" : "SCALAR"
        },
        {
            "bufferView" : 4,
            "componentType" : 5126,
            "count" : 228,
            "max" : [
                1.5680134296417236,
                0.20748576521873474,
                1.377198576927185
            ],
            "min" : [
                -0.8501179814338684,
                0.0688527524471283,
                -1.3771984577178955
            ],
            "type" : "VEC3"
        },
        {
            "bufferView" : 5,
            "componentType" : 5126,
            "count" : 228,
            "type" : "VEC3"
        },
        {
            "bufferView" : 6,
            "componentType" : 5126,
            "count" : 228,
            "type" : "VEC2"
        },
        {
            "bufferView" : 7,
            "componentType" : 5123,
            "count" : 618,
            "type" : "SCALAR"
        },
        {
            "bufferView" : 8,
            "componentType" : 5126,
            "count" : 192,
            "max" : [
                0.06187906861305237,
                0.22972655296325684,
                0.06187914311885834
            ],
            "min" : [
                -0.06187918782234192,
                -3.129243850708008e-07,
                -0.06187914311885834
            ],
            "type" : "VEC3"
        },
        {
            "bufferView" : 9,
            "componentType" : 5126,
            "count" : 192,
            "type" : "VEC3"
        },
        {
            "bufferView" : 10,
            "componentType" : 5126,
            "count" : 192,
            "type" : "VEC2"
        },
        {
            "bufferView" : 11,
            "componentType" : 5123,
            "count" : 564,
            "type" : "SCALAR"
        },
        {
            "bufferView" : 12,
            "componentType" : 5126,
            "count" : 517,
            "max" : [
                1.8119677305221558,
                -0.32628488540649414,
                0.6000000238418579
            ],
            "min" : [
                -0.6000000238418579,
                -1.3916985988616943,
                -0.6000000238418579
            ],
            "type" : "VEC3"
        },
        {
            "bufferView" : 13,
            "componentType" : 5126,
            "count" : 517,
            "type" : "VEC3"
        },
        {
            "bufferView" : 14,
            "componentType" : 5126,
            "count" : 517,
            "type" : "VEC2"
        },
        {
            "bufferView" : 15,
            "componentType" : 5123,
            "count" : 517,
            "normalized" : true,
            "type" : "VEC4"
        },
        {
            "bufferView" : 16,
            "componentType" : 5123,
            "count" : 1428,
            "type" : "SCALAR"
        },
        {
            "bufferView" : 17,
            "componentType" : 5126,
            "count" : 328,
            "max" : [
                0.3644522428512573,
                0.007275938987731934,
                0.3644523024559021
            ],
            "min" : [
                -0.3644522726535797,
                -0.32628488540649414,
                -0.3644523024559021
            ],
            "type" : "VEC3"
        },
        {
            "bufferView" : 18,
            "componentType" : 5126,
            "count" : 328,
            "type" : "VEC3"
        },
        {
            "bufferView" : 19,
            "componentType" : 5126,
            "count" : 328,
            "type" : "VEC2"
        },
        {
            "bufferView" : 20,
            "componentType" : 5123,
            "count" : 328,
            "normalized" : true,
            "type" : "VEC4"
        },
        {
            "bufferView" : 21,
            "componentType" : 5123,
            "count" : 906,
            "type" : "SCALAR"
        },
        {
            "bufferView" : 22,
            "componentType" : 5126,
            "count" : 48,
            "max" : [
                0.37159228324890137,
                -0.0916985273361206,
                0.37159228324890137
            ],
            "min" : [
                -0.371592253446579,
                -0.32628488540649414,
                -0.37159231305122375
            ],
            "type" : "VEC3"
        },
        {
            "bufferView" : 23,
            "componentType" : 5126,
            "count" : 48,
            "type" : "VEC3"
        },
        {
            "bufferView" : 24,
            "componentType" : 5126,
            "count" : 48,
            "type" : "VEC2"
        },
        {
            "bufferView" : 25,
            "componentType" : 5123,
            "count" : 48,
            "normalized" : true,
            "type" : "VEC4"
        },
        {
            "bufferView" : 26,
            "componentType" : 5123,
            "count" : 96,
            "type" : "SCALAR"
        },
        {
            "bufferView" : 27,
            "componentType" : 5126,
            "count" : 24,
            "max" : [
                0.18986350297927856,
                -0.007274627685546875,
                0.18986347317695618
            ],
            "min" : [
                -0.1898634135723114,
                -0.0916985273361206,
                -0.18986350297927856
            ],
            "type" : "VEC3"
        },
        {
            "bufferView" : 28,
            "componentType" : 5126,
            "count" : 24,
            "type" : "VEC3"
        },
        {
            "bufferView" : 29,
            "componentType" : 5126,
            "count" : 24,
            "type" : "VEC2"
        },
        {
            "bufferView" : 30,
            "componentType" : 5123,
            "count" : 24,
            "normalized" : true,
            "type" : "VEC4"
        },
        {
            "bufferView" : 31,
            "componentType" : 5123,
            "count" : 48,
            "type" : "SCALAR"
        }
    ],
    "bufferViews" : [
        {
            "buffer" : 0,
            "byteLength" : 24480,
            "byteOffset" : 0
        },
        {
            "buffer" : 0,
            "byteLength" : 24480,
            "byteOffset" : 24480
        },
        {
            "buffer" : 0,
            "byteLength" : 16320,
            "byteOffset" : 48960
        },
        {
            "buffer" : 0,
            "byteLength" : 12252,
            "byteOffset" : 65280
        },
        {
            "buffer" : 0,
            "byteLength" : 2736,
            "byteOffset" : 77532
        },
        {
            "buffer" : 0,
            "byteLength" : 2736,
            "byteOffset" : 80268
        },
        {
            "buffer" : 0,
            "byteLength" : 1824,
            "byteOffset" : 83004
        },
        {
            "buffer" : 0,
            "byteLength" : 1236,
            "byteOffset" : 84828
        },
        {
            "buffer" : 0,
            "byteLength" : 2304,
            "byteOffset" : 86064
        },
        {
            "buffer" : 0,
            "byteLength" : 2304,
            "byteOffset" : 88368
        },
        {
            "buffer" : 0,
            "byteLength" : 1536,
            "byteOffset" : 90672
        },
        {
            "buffer" : 0,
            "byteLength" : 1128,
            "byteOffset" : 92208
        },
        {
            "buffer" : 0,
            "byteLength" : 6204,
            "byteOffset" : 93336
        },
        {
            "buffer" : 0,
            "byteLength" : 6204,
            "byteOffset" : 99540
        },
        {
            "buffer" : 0,
            "byteLength" : 4136,
            "byteOffset" : 105744
        },
        {
            "buffer" : 0,
            "byteLength" : 4136,
            "byteOffset" : 109880
        },
        {
            "buffer" : 0,
            "byteLength" : 2856,
            "byteOffset" : 114016
        },
        {
            "buffer" : 0,
            "byteLength" : 3936,
            "byteOffset" : 116872
        },
        {
            "buffer" : 0,
            "byteLength" : 3936,
            "byteOffset" : 120808
        },
        {
            "buffer" : 0,
            "byteLength" : 2624,
            "byteOffset" : 124744
        },
        {
            "buffer" : 0,
            "byteLength" : 2624,
            "byteOffset" : 127368
        },
        {
            "buffer" : 0,
            "byteLength" : 1812,
            "byteOffset" : 129992
        },
        {
            "buffer" : 0,
            "byteLength" : 576,
            "byteOffset" : 131804
        },
        {
            "buffer" : 0,
            "byteLength" : 576,
            "byteOffset" : 132380
        },
        {
            "buffer" : 0,
            "byteLength" : 384,
            "byteOffset" : 132956
        },
        {
            "buffer" : 0,
            "byteLength" : 384,
            "byteOffset" : 133340
        },
        {
            "buffer" : 0,
            "byteLength" : 192,
            "byteOffset" : 133724
        },
        {
            "buffer" : 0,
            "byteLength" : 288,
            "byteOffset" : 133916
        },
        {
            "buffer" : 0,
            "byteLength" : 288,
            "byteOffset" : 134204
        },
        {
            "buffer" : 0,
            "byteLength" : 192,
            "byteOffset" : 134492
        },
        {
            "buffer" : 0,
            "byteLength" : 192,
            "byteOffset" : 134684
        },
        {
            "buffer" : 0,
            "byteLength" : 96,
            "byteOffset" : 134876
        }
    ],
    "buffers" : [
        {
            "byteLength" : 134972,
            "uri" : "data:application/octet-stream;base64,"
        }
    ]
}
