{
    "asset" : {
        "generator" : "Khronos glTF Blender I/O v1.8.19",
        "version" : "2.0"
    },
    "scene" : 0,
    "scenes" : [
        {
            "name" : "Scene",
            "nodes" : [
                0,
                1
            ]
        }
    ],
    "nodes" : [
        {
            "mesh" : 0,
            "name" : "body",
            "translation" : [
                0,
                1.399999976158142,
                0
            ]
        },
        {
            "mesh" : 1,
            "name" : "wing",
            "rotation" : [
                0,
                -0.9582196474075317,
                0,
                0.2860337495803833
            ],
            "translation" : [
                0,
                1.399999976158142,
                0
            ]
        }
    ],
    "materials" : [
        {
            "doubleSided" : true,
            "name" : "black",
            "pbrMetallicRoughness" : {
                "baseColorFactor" : [
                    0.03410154581069946,
                    0.03410154581069946,
                    0.03410154581069946,
                    1
                ],
                "metallicFactor" : 0,
                "roughnessFactor" : 0.5
            }
        },
        {
            "doubleSided" : true,
            "name" : "metal",
            "pbrMetallicRoughness" : {
                "baseColorFactor" : [
                    0.40622928738594055,
                    0.40622928738594055,
                    0.40622928738594055,
                    1
                ],
                "metallicFactor" : 0.8565737009048462,
                "roughnessFactor" : 0.5
            }
        },
        {
            "doubleSided" : true,
            "name" : "green",
            "pbrMetallicRoughness" : {
                "baseColorFactor" : [
                    0.029771462082862854,
                    0.5065864324569702,
                    0.023245517164468765,
                    1
                ],
                "metallicFactor" : 0,
                "roughnessFactor" : 0.5
            }
        },
        {
            "doubleSided" : true,
            "name" : "blue",
            "pbrMetallicRoughness" : {
                "baseColorFactor" : [
                    0.007447982206940651,
                    0.1599704623222351,
                    0.8000000715255737,
                    1
                ],
                "metallicFactor" : 0,
                "roughnessFactor" : 0.5
            }
        }
    ],
    "meshes" : [
        {
            "name" : "body",
            "primitives" : [
                {
                    "attributes" : {
                        "POSITION" : 0,
                        "NORMAL" : 1,
                        "TEXCOORD_0" : 2,
                        "COLOR_0" : 3
                    },
                    "indices" : 4,
                    "material" : 0
                },
                {
                    "attributes" : {
                        "POSITION" : 5,
                        "NORMAL" : 6,
                        "TEXCOORD_0" : 7,
                        "COLOR_0" : 8
                    },
                    "indices" : 9,
                    "material" : 1
                }
            ]
        },
        {
            "name" : "wing",
            "primitives" : [
                {
                    "attributes" : {
                        "POSITION" : 10,
                        "NORMAL" : 11,
                        "TEXCOORD_0" : 12
                    },
                    "indices" : 13,
                    "material" : 2
                },
                {
                    "attributes" : {
                        "POSITION" : 14,
                        "NORMAL" : 15,
                        "TEXCOORD_0" : 16
                    },
                    "indices" : 17,
                    "material" : 3
                },
                {
                    "attributes" : {
                        "POSITION" : 18,
                        "NORMAL" : 19,
                        "TEXCOORD_0" : 20
                    },
                    "indices" : 21,
                    "material" : 1
                }
            ]
        }
    ],
    "accessors" : [
        {
            "bufferView" : 0,
            "componentType" : 5126,
            "count" : 517,
            "max" : [
                1.8119677305221558,
                -0.32628488540649414,
                0.6000000238418579
            ],
            "min" : [
                -0.6000000238418579,
                -1.3916985988616943,
                -0.6000000238418579
            ],
            "type" : "VEC3"
        },
        {
            "bufferView" : 1,
            "componentType" : 5126,
            "count" : 517,
            "type" : "VEC3"
        },
        {
            "bufferView" : 2,
            "componentType" : 5126,
            "count" : 517,
            "type" : "VEC2"
        },
        {
            "bufferView" : 3,
            "componentType" : 5123,
            "count" : 517,
            "normalized" : true,
            "type" : "VEC4"
        },
        {
            "bufferView" : 4,
            "componentType" : 5123,
            "count" : 1428,
            "type" : "SCALAR"
        },
        {
            "bufferView" : 5,
            "componentType" : 5126,
            "count" : 352,
            "max" : [
                0.37159228324890137,
                0.007275938987731934,
                0.37159228324890137
            ],
            "min" : [
                -0.371592253446579,
                -0.32628488540649414,
                -0.37159231305122375
            ],
            "type" : "VEC3"
        },
        {
            "bufferView" : 6,
            "componentType" : 5126,
            "count" : 352,
            "type" : "VEC3"
        },
        {
            "bufferView" : 7,
            "componentType" : 5126,
            "count" : 352,
            "type" : "VEC2"
        },
        {
            "bufferView" : 8,
            "componentType" : 5123,
            "count" : 352,
            "normalized" : true,
            "type" : "VEC4"
        },
        {
            "bufferView" : 9,
            "componentType" : 5123,
            "count" : 1050,
            "type" : "SCALAR"
        },
        {
            "bufferView" : 10,
            "componentType" : 5126,
            "count" : 2040,
            "max" : [
                1.5680134296417236,
                0.20748576521873474,
                1.377198576927185
            ],
            "min" : [
                -0.8501179814338684,
                0.0542018860578537,
                -1.3771984577178955
            ],
            "type" : "VEC3"
        },
        {
            "bufferView" : 11,
            "componentType" : 5126,
            "count" : 2040,
            "type" : "VEC3"
        },
        {
            "bufferView" : 12,
            "componentType" : 5126,
            "count" : 2040,
            "type" : "VEC2"
        },
        {
            "bufferView" : 13,
            "componentType" : 5123,
            "count" : 6126,
            "type" : "SCALAR"
        },
        {
            "bufferView" : 14,
            "componentType" : 5126,
            "count" : 228,
            "max" : [
                1.5680134296417236,
                0.20748576521873474,
                1.377198576927185
            ],
            "min" : [
                -0.8501179814338684,
                0.0688527524471283,
                -1.3771984577178955
            ],
            "type" : "VEC3"
        },
        {
            "bufferView" : 15,
            "componentType" : 5126,
            "count" : 228,
            "type" : "VEC3"
        },
        {
            "bufferView" : 16,
            "componentType" : 5126,
            "count" : 228,
            "type" : "VEC2"
        },
        {
            "bufferView" : 17,
            "componentType" : 5123,
            "count" : 618,
            "type" : "SCALAR"
        },
        {
            "bufferView" : 18,
            "componentType" : 5126,
            "count" : 192,
            "max" : [
                0.06187906861305237,
                0.22972655296325684,
                0.06187914311885834
            ],
            "min" : [
                -0.06187918782234192,
                -3.129243850708008e-07,
                -0.06187914311885834
            ],
            "type" : "VEC3"
        },
        {
            "bufferView" : 19,
            "componentType" : 5126,
            "count" : 192,
            "type" : "VEC3"
        },
        {
            "bufferView" : 20,
            "componentType" : 5126,
            "count" : 192,
            "type" : "VEC2"
        },
        {
            "bufferView" : 21,
            "componentType" : 5123,
            "count" : 564,
            "type" : "SCALAR"
        }
    ],
    "bufferViews" : [
        {
            "buffer" : 0,
            "byteLength" : 6204,
            "byteOffset" : 0
        },
        {
            "buffer" : 0,
            "byteLength" : 6204,
            "byteOffset" : 6204
        },
        {
            "buffer" : 0,
            "byteLength" : 4136,
            "byteOffset" : 12408
        },
        {
            "buffer" : 0,
            "byteLength" : 4136,
            "byteOffset" : 16544
        },
        {
            "buffer" : 0,
            "byteLength" : 2856,
            "byteOffset" : 20680
        },
        {
            "buffer" : 0,
            "byteLength" : 4224,
            "byteOffset" : 23536
        },
        {
            "buffer" : 0,
            "byteLength" : 4224,
            "byteOffset" : 27760
        },
        {
            "buffer" : 0,
            "byteLength" : 2816,
            "byteOffset" : 31984
        },
        {
            "buffer" : 0,
            "byteLength" : 2816,
            "byteOffset" : 34800
        },
        {
            "buffer" : 0,
            "byteLength" : 2100,
            "byteOffset" : 37616
        },
        {
            "buffer" : 0,
            "byteLength" : 24480,
            "byteOffset" : 39716
        },
        {
            "buffer" : 0,
            "byteLength" : 24480,
            "byteOffset" : 64196
        },
        {
            "buffer" : 0,
            "byteLength" : 16320,
            "byteOffset" : 88676
        },
        {
            "buffer" : 0,
            "byteLength" : 12252,
            "byteOffset" : 104996
        },
        {
            "buffer" : 0,
            "byteLength" : 2736,
            "byteOffset" : 117248
        },
        {
            "buffer" : 0,
            "byteLength" : 2736,
            "byteOffset" : 119984
        },
        {
            "buffer" : 0,
            "byteLength" : 1824,
            "byteOffset" : 122720
        },
        {
            "buffer" : 0,
            "byteLength" : 1236,
            "byteOffset" : 124544
        },
        {
            "buffer" : 0,
            "byteLength" : 2304,
            "byteOffset" : 125780
        },
        {
            "buffer" : 0,
            "byteLength" : 2304,
            "byteOffset" : 128084
        },
        {
            "buffer" : 0,
            "byteLength" : 1536,
            "byteOffset" : 130388
        },
        {
            "buffer" : 0,
            "byteLength" : 1128,
            "byteOffset" : 131924
        }
    ],
    "buffers" : [
        {
            "byteLength" : 133052,
            "uri" : "data:application/octet-stream;base64,"
        }
    ]
}
